# xmcd
#
# Track frame offsets:
#	180
#	14800
#	29789
#
# Disc length: 628 seconds
#
# Revision: 0
# Processed by: cddbd v1.5.2PL0 Copyright (c) Steve Scherf et al.
# Submitted via: audiograbber 1.83.01
#
DISCID=26027203
DTITLE=Dampfblosn - Toleranz
DYEAR=1994
DGENRE=Deutsch
TTITLE0=Maicheret
TTITLE1=Schee wor¥s - alla hom ¥grinna
TTITLE2=Bluﬂ kan Blues
EXTD=
EXTT0=
EXTT1=
EXTT2=
PLAYORDER=
